<svg xmlns="http://www.w3.org/2000/svg" viewBox="0 0 267.47 225.96"><defs><style>.cls-1{fill:#64b5ff;}.cls-2{fill:#067efe;}.cls-3{fill:#004c84;}</style></defs><title>vc-butterfly-bm-bgWhite</title><g id="Layer_2" data-name="Layer 2"><g id="Layer_1-2" data-name="Layer 1"><path class="cls-1" d="M116.41,40.6,98.75,88.26C93,103.77,99,124,112,133.25h0l18.4-49.66c5.36-14.47-.15-33.19-12.31-41.81Z" transform="translate(-1.17)"/><path class="cls-2" d="M125.65,96.42,77.48,62.28C59.44,49.49,51.19,21.47,59.14,0h0l58.95,41.78c12.16,8.62,17.67,27.34,12.31,41.81Z" transform="translate(-1.17)"/><polygon class="cls-3" points="100.78 79.63 122.58 101.55 124.48 96.42 100.78 79.63"/><path class="cls-1" d="M152.71,40.6l17.66,47.67c5.75,15.51-.22,35.75-13.25,45h0l-18.4-49.66c-5.36-14.47.15-33.19,12.31-41.81Z" transform="translate(-1.17)"/><path class="cls-2" d="M143.47,96.42l48.17-34.14C209.68,49.49,217.93,21.47,210,0h0L151,41.78c-12.16,8.62-17.67,27.34-12.31,41.81Z" transform="translate(-1.17)"/><polygon class="cls-3" points="166 79.63 144.2 101.55 142.3 96.42 166 79.63"/><path d="M41.62,184.47H41.5v5H36.79v-41h4.94v16.38h.11a10.47,10.47,0,0,1,9.45-5.45c7.44,0,12.46,6,12.46,15.27S58.76,190,51.21,190A10.59,10.59,0,0,1,41.62,184.47Zm.08-9.76c0,6.58,3.55,10.93,8.54,10.93,5.22,0,8.46-4.17,8.46-10.93s-3.24-10.93-8.46-10.93C45.25,163.78,41.7,168.15,41.7,174.71Z" transform="translate(-1.17)"/><path d="M93,189.47H88.31v-4.8h-.11c-1.76,3.41-4.83,5.31-9.37,5.31-6.44,0-10.22-4.17-10.22-10.87V159.95h4.94v18.28c0,4.8,2.24,7.38,6.81,7.38,4.8,0,7.69-3.29,7.69-8.32V159.95H93Z" transform="translate(-1.17)"/><path d="M105.91,152.83v7.12h5.73V164h-5.73v17.54c0,2.7,1.14,3.92,3.66,3.92a19.26,19.26,0,0,0,2-.14v4.14a17.53,17.53,0,0,1-3.12.23c-5.42,0-7.52-2.21-7.52-7.89V164h-4.4v-4.06H101v-7.12Z" transform="translate(-1.17)"/><path d="M123.42,152.83v7.12h5.73V164h-5.73v17.54c0,2.7,1.14,3.92,3.66,3.92a19.26,19.26,0,0,0,2-.14v4.14a17.53,17.53,0,0,1-3.12.23c-5.42,0-7.52-2.21-7.52-7.89V164h-4.4v-4.06h4.4v-7.12Z" transform="translate(-1.17)"/><path d="M158,181c-.85,5.17-5.85,9-12.29,9-8.46,0-13.59-5.87-13.59-15.16s5.22-15.38,13.37-15.38c8,0,12.89,5.79,12.89,14.73V176H137.18v.28c0,5.65,3.32,9.37,8.63,9.37,3.75,0,6.5-1.9,7.32-4.68Zm-20.78-8.83h16c-.11-4.94-3.21-8.46-7.86-8.46S137.52,167.27,137.21,172.18Z" transform="translate(-1.17)"/><path d="M163.33,159.95H168v4.83h.11a7.23,7.23,0,0,1,7.15-5.34,12.61,12.61,0,0,1,2,.2v4.8a10,10,0,0,0-2.64-.28c-3.83,0-6.33,2.75-6.33,6.93v18.39h-4.94Z" transform="translate(-1.17)"/><path d="M182.83,164h-4.12v-4.06h4.12v-3.29c0-5.68,2.64-8.37,8.09-8.37a20.92,20.92,0,0,1,3,.23v4a16.63,16.63,0,0,0-2.24-.17c-2.67,0-3.95,1.42-3.95,4.34v3.26h6V164h-6v25.46h-4.94Z" transform="translate(-1.17)"/><path d="M199.15,148.51h4.94v41h-4.94Z" transform="translate(-1.17)"/><path d="M211.07,200.34v-4.14a10.48,10.48,0,0,0,1.93.14c2.75,0,4.29-1.33,5.42-4.77l.68-2.07-10.9-29.54h5.28l8.17,24.58h.08l8.17-24.58h5.19L223.5,191.54c-2.53,6.9-5,9-10.3,9A13,13,0,0,1,211.07,200.34Z" transform="translate(-1.17)"/><path d="M1.17,225.69v-15.5H8.38c3.05,0,4.89,1.47,4.89,3.87a3.42,3.42,0,0,1-3,3.36v.09A3.77,3.77,0,0,1,14,221.22c0,2.72-2.09,4.47-5.41,4.47Zm3.94-9.19h2c1.43,0,2.29-.68,2.29-1.79S8.66,213,7.34,213H5.11Zm2.34,6.39c1.62,0,2.52-.71,2.52-2s-.92-2-2.55-2H5.11v4Z" transform="translate(-1.17)"/><path d="M19.59,219.77a2.56,2.56,0,0,0,2.74,2.88,2.56,2.56,0,0,0,2.73-2.88v-9.58H29v10c0,3.48-2.64,5.77-6.67,5.77s-6.68-2.29-6.68-5.77v-10h3.94Z" transform="translate(-1.17)"/><path d="M34.6,221.2c.14,1.06,1.33,1.77,2.79,1.77s2.54-.69,2.54-1.62-.66-1.28-2.42-1.64l-2-.4c-2.86-.55-4.33-2.1-4.33-4.45,0-3,2.58-4.94,6.17-4.94,3.88,0,6.17,1.88,6.21,4.79H39.9c-.08-1.13-1.12-1.8-2.54-1.8s-2.29.62-2.29,1.57.69,1.3,2.31,1.63l2,.38c3.06.59,4.44,2,4.44,4.43,0,3.08-2.55,5-6.54,5s-6.39-1.75-6.43-4.76Z" transform="translate(-1.17)"/><path d="M45.68,225.69v-15.5h3.94v15.5Z" transform="translate(-1.17)"/><path d="M52,225.69v-15.5h3.15l6.57,9h.09v-9h3.74v15.5H62.39l-6.61-9.1H55.7v9.1Z" transform="translate(-1.17)"/><path d="M78.47,225.69H67.85v-15.5H78.47v3.18H71.79v3.08h6.28v2.9H71.79v3.16h6.68Z" transform="translate(-1.17)"/><path d="M84,221.2c.14,1.06,1.33,1.77,2.79,1.77s2.54-.69,2.54-1.62-.66-1.28-2.42-1.64l-2-.4c-2.86-.55-4.33-2.1-4.33-4.45,0-3,2.58-4.94,6.17-4.94,3.88,0,6.17,1.88,6.21,4.79H89.25c-.08-1.13-1.12-1.8-2.54-1.8s-2.29.62-2.29,1.57.69,1.3,2.31,1.63l2,.38c3.06.59,4.44,2,4.44,4.43,0,3.08-2.55,5-6.54,5s-6.39-1.75-6.43-4.76Z" transform="translate(-1.17)"/><path d="M98.28,221.2c.14,1.06,1.33,1.77,2.79,1.77s2.54-.69,2.54-1.62-.66-1.28-2.42-1.64l-2-.4c-2.86-.55-4.33-2.1-4.33-4.45,0-3,2.58-4.94,6.17-4.94,3.88,0,6.17,1.88,6.21,4.79h-3.63c-.08-1.13-1.12-1.8-2.54-1.8s-2.29.62-2.29,1.57.69,1.3,2.31,1.63l2,.38c3.06.59,4.44,2,4.44,4.43,0,3.08-2.55,5-6.54,5s-6.39-1.75-6.43-4.76Z" transform="translate(-1.17)"/><path d="M127.17,225.69V216h-.08l-3.83,9.52H121L117.18,216h-.09v9.68h-3.47v-15.5h4.55l3.91,10h.09l3.91-10h4.55v15.5Z" transform="translate(-1.17)"/><path d="M142.19,222.28h-5.07l-1,3.41h-4l5.21-15.5h4.82l5.21,15.5h-4.19Zm-4.31-2.84h3.53l-1.72-6h-.09Z" transform="translate(-1.17)"/><path d="M148.84,225.69v-15.5H152l6.57,9h.09v-9h3.74v15.5h-3.12l-6.61-9.1h-.09v9.1Z" transform="translate(-1.17)"/><path d="M173.95,222.28h-5.07l-1,3.41h-4l5.21-15.5h4.82l5.21,15.5h-4.19Zm-4.31-2.84h3.53l-1.72-6h-.09Z" transform="translate(-1.17)"/><path d="M186.9,226c-4.78,0-7.66-3-7.66-8s2.88-8,7.56-8c3.76,0,6.57,2.22,7,5.38h-3.9a3,3,0,0,0-3.06-2.21c-2.23,0-3.56,1.75-3.56,4.77s1.46,4.93,3.73,4.93a2.87,2.87,0,0,0,3.14-2.61v-.24H187.3v-2.71h6.64v1.9C193.94,223.37,191.32,226,186.9,226Z" transform="translate(-1.17)"/><path d="M206.52,225.69H195.89v-15.5h10.62v3.18h-6.68v3.08h6.28v2.9h-6.28v3.16h6.68Z" transform="translate(-1.17)"/><path d="M222.29,225.69V216h-.08l-3.83,9.52h-2.26L212.3,216h-.09v9.68h-3.47v-15.5h4.55l3.91,10h.09l3.91-10h4.55v15.5Z" transform="translate(-1.17)"/><path d="M238.72,225.69H228.1v-15.5h10.62v3.18H232v3.08h6.28v2.9H232v3.16h6.68Z" transform="translate(-1.17)"/><path d="M240.95,225.69v-15.5h3.15l6.57,9h.09v-9h3.74v15.5h-3.12l-6.61-9.1h-.09v9.1Z" transform="translate(-1.17)"/><path d="M260.43,225.69V213.37h-4.28v-3.18h12.48v3.18h-4.28v12.32Z" transform="translate(-1.17)"/></g></g></svg>